<?xml version="1.0" standalone="no"?>
<!DOCTYPE svg PUBLIC "-//W3C//DTD SVG 20010904//EN"
 "http://www.w3.org/TR/2001/REC-SVG-20010904/DTD/svg10.dtd">
<svg version="1.0" xmlns="http://www.w3.org/2000/svg"
 width="256.000000pt" height="256.000000pt" viewBox="0 0 256.000000 256.000000"
 preserveAspectRatio="xMidYMid meet">

<g transform="translate(0.000000,256.000000) scale(0.100000,-0.100000)"
fill="#000000" stroke="none">
<path d="M825 1975 c-16 -15 -25 -36 -25 -55 0 -19 9 -40 25 -55 l24 -25 438
0 438 0 -583 -583 c-532 -533 -582 -585 -582 -615 0 -44 38 -82 82 -82 30 0
82 50 615 582 l583 583 0 -438 0 -438 25 -24 c32 -33 78 -33 110 0 l25 24 0
551 0 551 -25 24 -24 25 -551 0 -551 0 -24 -25z"/>
</g>
</svg>
