<?xml version="1.0" standalone="no"?>
<!DOCTYPE svg PUBLIC "-//W3C//DTD SVG 20010904//EN"
 "http://www.w3.org/TR/2001/REC-SVG-20010904/DTD/svg10.dtd">
<svg version="1.0" xmlns="http://www.w3.org/2000/svg"
 width="256.000000pt" height="256.000000pt" viewBox="0 0 256.000000 256.000000"
 preserveAspectRatio="xMidYMid meet">

<g transform="translate(0.000000,256.000000) scale(0.100000,-0.100000)"
fill="#000000" stroke="none">
<path d="M1151 2274 c-80 -21 -149 -62 -211 -124 -124 -125 -168 -294 -122
-461 100 -358 540 -474 802 -210 299 299 78 814 -347 810 -37 0 -92 -7 -122
-15z m244 -223 c47 -21 111 -88 132 -138 8 -20 14 -65 14 -100 0 -112 -62
-205 -165 -248 -45 -19 -147 -19 -192 0 -131 55 -200 206 -155 339 15 44 81
120 123 142 71 37 167 39 243 5z"/>
<path d="M620 1273 c-209 -36 -366 -193 -402 -402 -24 -141 29 -297 137 -407
162 -164 398 -190 599 -66 187 116 267 373 180 586 -78 194 -310 324 -514 289z
m195 -235 c51 -27 104 -88 126 -147 54 -144 -23 -297 -175 -343 -60 -18 -75
-19 -122 -9 -119 27 -205 122 -212 236 -8 118 42 210 140 260 47 24 62 26 133
23 46 -3 93 -11 110 -20z"/>
<path d="M1770 1270 c-71 -15 -190 -79 -240 -129 -162 -162 -187 -413 -62
-607 116 -178 349 -259 547 -189 279 98 406 397 281 660 -78 164 -223 260
-406 270 -41 2 -95 0 -120 -5z m205 -229 c103 -47 150 -123 150 -246 0 -70 -4
-86 -28 -128 -51 -87 -169 -147 -259 -132 -172 29 -270 179 -223 340 20 70 89
148 150 170 57 20 161 19 210 -4z"/>
</g>
</svg>
