<?xml version="1.0" standalone="no"?>
<!DOCTYPE svg PUBLIC "-//W3C//DTD SVG 20010904//EN"
 "http://www.w3.org/TR/2001/REC-SVG-20010904/DTD/svg10.dtd">
<svg version="1.0" xmlns="http://www.w3.org/2000/svg"
 width="128.000000pt" height="128.000000pt" viewBox="0 0 128.000000 128.000000"
 preserveAspectRatio="xMidYMid meet">

<g transform="translate(0.000000,128.000000) scale(0.100000,-0.100000)"
fill="#000000" stroke="none">
<path d="M240 1148 c-49 -34 -72 -71 -77 -125 -5 -60 19 -108 70 -142 l37 -24
0 -217 0 -217 -37 -24 c-96 -64 -95 -205 3 -269 64 -43 165 -19 216 51 48 64
23 175 -48 219 l-34 22 0 134 c0 74 3 134 6 134 3 0 22 -14 43 -30 67 -55 126
-70 265 -70 l124 0 20 -34 c30 -51 66 -70 132 -71 47 0 63 5 94 29 150 114 9
350 -161 269 -20 -9 -47 -34 -62 -54 l-26 -38 -87 -1 c-158 0 -235 32 -302
127 l-29 42 35 33 c110 104 44 278 -105 278 -29 0 -55 -8 -77 -22z m112 -95
c20 -18 24 -63 6 -81 -7 -7 -24 -12 -38 -12 -33 0 -50 17 -50 49 0 28 26 61
48 61 9 0 24 -7 34 -17z m639 -373 c22 -12 26 -59 7 -78 -7 -7 -24 -12 -38
-12 -14 0 -31 5 -38 12 -15 15 -15 61 0 76 15 15 43 15 69 2z m-637 -376 c24
-24 20 -61 -9 -80 -23 -15 -27 -15 -50 0 -17 11 -25 26 -25 46 0 45 52 66 84
34z"/>
</g>
</svg>
