<?xml version="1.0" standalone="no"?>
<!DOCTYPE svg PUBLIC "-//W3C//DTD SVG 20010904//EN"
 "http://www.w3.org/TR/2001/REC-SVG-20010904/DTD/svg10.dtd">
<svg version="1.0" xmlns="http://www.w3.org/2000/svg"
 width="128.000000pt" height="128.000000pt" viewBox="0 0 128.000000 128.000000"
 preserveAspectRatio="xMidYMid meet">

<g transform="translate(0.000000,128.000000) scale(0.100000,-0.100000)"
fill="#000000" stroke="none">
<path d="M561 1157 c-42 -13 -98 -68 -117 -113 -18 -43 -18 -122 1 -167 18
-44 63 -89 109 -111 l36 -17 0 -134 0 -135 -205 0 -204 0 -36 -31 -35 -31 0
-125 c0 -124 0 -125 29 -154 l29 -29 472 0 472 0 29 29 c29 29 29 30 29 151
l0 122 -34 34 -34 34 -206 0 -206 0 0 135 0 134 35 16 c74 36 125 114 125 192
-1 150 -142 247 -289 200z m153 -126 c41 -41 42 -99 2 -140 -37 -39 -75 -47
-120 -26 -32 15 -66 64 -66 95 0 29 34 79 63 94 42 21 85 13 121 -23z m354
-738 l-3 -78 -427 -3 -428 -2 0 80 0 80 430 0 431 0 -3 -77z"/>
</g>
</svg>
