<?xml version="1.0" standalone="no"?>
<!DOCTYPE svg PUBLIC "-//W3C//DTD SVG 20010904//EN"
 "http://www.w3.org/TR/2001/REC-SVG-20010904/DTD/svg10.dtd">
<svg version="1.0" xmlns="http://www.w3.org/2000/svg"
 width="256.000000pt" height="256.000000pt" viewBox="0 0 256.000000 256.000000"
 preserveAspectRatio="xMidYMid meet">

<g transform="translate(0.000000,256.000000) scale(0.100000,-0.100000)"
fill="#000000" stroke="none">
<path d="M478 2340 c-100 -17 -190 -89 -240 -189 -21 -42 -23 -62 -26 -252 -5
-301 -7 -299 257 -299 l170 0 3 -572 3 -573 26 -56 c33 -71 87 -125 158 -158
l56 -26 575 -3 c405 -2 591 0 628 8 106 23 183 86 230 189 21 45 26 74 30 171
6 144 -2 202 -33 238 -21 24 -32 28 -102 32 l-78 5 -5 630 -5 630 -27 50 c-32
62 -102 128 -166 158 -47 22 -49 22 -727 24 -374 0 -701 -3 -727 -7z m124
-239 l33 -29 0 -129 0 -128 -102 -3 -103 -3 0 128 c1 134 3 144 50 176 38 26
84 22 122 -12z m1285 -4 l28 -27 0 -608 0 -607 -397 -5 c-397 -5 -397 -5 -420
-28 -21 -21 -23 -33 -28 -178 l-5 -156 -33 -29 c-66 -60 -165 -24 -177 64 -3
23 -6 394 -8 825 l-2 783 507 -3 508 -3 27 -28z m243 -1533 c0 -70 -2 -78 -29
-105 l-29 -29 -406 0 -405 0 10 32 c5 18 9 66 9 105 l0 73 425 0 425 0 0 -76z"/>
</g>
</svg>
