<?xml version="1.0" standalone="no"?>
<!DOCTYPE svg PUBLIC "-//W3C//DTD SVG 20010904//EN"
 "http://www.w3.org/TR/2001/REC-SVG-20010904/DTD/svg10.dtd">
<svg version="1.0" xmlns="http://www.w3.org/2000/svg"
 width="256.000000pt" height="256.000000pt" viewBox="0 0 256.000000 256.000000"
 preserveAspectRatio="xMidYMid meet">

<g transform="translate(0.000000,256.000000) scale(0.100000,-0.100000)"
fill="#000000" stroke="none">
<path d="M753 2120 c-117 -24 -233 -116 -286 -227 -30 -64 -32 -74 -32 -183 0
-109 2 -118 33 -185 62 -132 173 -214 316 -237 228 -35 433 101 482 322 31
138 -8 289 -100 388 -100 106 -256 152 -413 122z m221 -237 c88 -62 116 -180
65 -279 -29 -57 -69 -87 -138 -104 -102 -24 -224 42 -250 135 -32 116 11 217
114 267 60 28 153 20 209 -19z"/>
<path d="M1617 1582 c-37 -37 -67 -72 -67 -77 0 -5 48 -58 107 -117 l108 -108
-108 -108 c-59 -59 -107 -112 -107 -117 0 -14 133 -145 147 -145 6 0 24 15 41
33 16 17 63 66 105 107 l77 74 108 -107 c60 -59 113 -107 118 -107 13 0 144
133 144 146 0 6 -47 57 -105 114 -58 56 -105 106 -105 109 0 4 47 53 105 111
58 58 105 109 105 115 0 6 -31 41 -69 79 -48 48 -73 66 -82 60 -8 -4 -58 -51
-112 -103 -54 -53 -102 -97 -106 -99 -3 -1 -55 45 -115 103 -59 58 -111 105
-115 105 -3 0 -37 -30 -74 -68z"/>
<path d="M616 1159 c-68 -16 -168 -72 -227 -127 -112 -104 -165 -220 -176
-386 -7 -116 4 -164 44 -196 25 -20 39 -20 590 -20 603 0 606 0 633 49 13 26
13 206 -1 273 -29 140 -140 289 -264 355 -108 56 -148 63 -364 62 -108 -1
-214 -5 -235 -10z m474 -226 c25 -12 62 -36 82 -53 42 -35 93 -133 103 -197
l7 -43 -426 0 -426 0 0 33 c0 111 114 248 233 278 18 4 111 7 207 6 158 -2
179 -4 220 -24z"/>
</g>
</svg>
