<?xml version="1.0" standalone="no"?>
<!DOCTYPE svg PUBLIC "-//W3C//DTD SVG 20010904//EN"
 "http://www.w3.org/TR/2001/REC-SVG-20010904/DTD/svg10.dtd">
<svg version="1.0" xmlns="http://www.w3.org/2000/svg"
 width="256.000000pt" height="256.000000pt" viewBox="0 0 256.000000 256.000000"
 preserveAspectRatio="xMidYMid meet">

<g transform="translate(0.000000,256.000000) scale(0.100000,-0.100000)"
fill="#000000" stroke="none">
<path d="M730 2114 c-30 -8 -73 -25 -95 -38 -59 -35 -142 -128 -173 -193 -24
-53 -27 -69 -27 -173 1 -153 21 -208 114 -301 76 -75 137 -107 233 -122 295
-46 537 195 489 485 -15 93 -46 160 -103 223 -103 114 -279 162 -438 119z
m193 -205 c83 -23 139 -102 140 -198 0 -81 -30 -143 -88 -180 -91 -58 -196
-49 -270 23 -71 68 -85 166 -37 257 46 89 148 128 255 98z"/>
<path d="M1937 1443 l-227 -227 -118 117 c-64 64 -122 117 -127 117 -6 0 -42
-32 -80 -70 l-70 -70 176 -175 c155 -155 179 -175 208 -175 17 0 44 6 59 14
29 15 552 538 552 552 0 6 -137 144 -143 144 -1 0 -104 -102 -230 -227z"/>
<path d="M577 1146 c-168 -60 -285 -182 -342 -356 -13 -40 -19 -88 -19 -178
l-1 -124 33 -29 32 -29 576 0 576 0 29 29 c28 29 29 32 29 135 0 130 -12 190
-58 286 -50 106 -130 184 -247 241 l-90 44 -225 3 c-216 2 -228 1 -293 -22z
m520 -219 c96 -50 161 -139 178 -244 l7 -43 -426 0 -426 0 0 38 c0 52 49 150
98 194 86 77 128 88 347 85 163 -3 172 -4 222 -30z"/>
</g>
</svg>
