<?xml version="1.0" standalone="no"?>
<!DOCTYPE svg PUBLIC "-//W3C//DTD SVG 20010904//EN"
 "http://www.w3.org/TR/2001/REC-SVG-20010904/DTD/svg10.dtd">
<svg version="1.0" xmlns="http://www.w3.org/2000/svg"
 width="2000.000000pt" height="2000.000000pt" viewBox="0 0 2000.000000 2000.000000"
 preserveAspectRatio="xMidYMid meet">

<g transform="translate(0.000000,2000.000000) scale(0.100000,-0.100000)"
fill="#000000" stroke="none">
<path d="M6917 19408 c-16 -12 -17 -291 -15 -4515 l3 -4501 185 171 c102 95
722 668 1378 1275 l1192 1103 0 3233 0 3234 -22 6 c-13 3 -626 6 -1364 6
-1057 0 -1344 -3 -1357 -12z"/>
<path d="M16185 18313 c-103 -14 -223 -68 -300 -134 -27 -24 -2393 -2212
-5256 -4861 -2897 -2680 -5221 -4837 -5239 -4863 -77 -111 -105 -217 -98 -366
6 -115 30 -191 92 -285 36 -54 783 -867 869 -946 192 -176 490 -199 704 -55
34 23 234 202 445 397 211 196 2550 2359 5198 4809 2648 2449 4836 4476 4862
4504 104 113 153 251 146 412 -5 120 -31 202 -91 292 -67 98 -863 952 -931
997 -124 82 -265 117 -401 99z"/>
<path d="M8278 7494 l-1378 -1276 0 -3070 0 -3071 40 34 c22 19 642 592 1379
1274 l1340 1240 1 3073 c0 1689 -1 3072 -2 3071 -2 0 -623 -574 -1380 -1275z"/>
</g>
</svg>
