<?xml version="1.0" standalone="no"?>
<!DOCTYPE svg PUBLIC "-//W3C//DTD SVG 20010904//EN"
 "http://www.w3.org/TR/2001/REC-SVG-20010904/DTD/svg10.dtd">
<svg version="1.0" xmlns="http://www.w3.org/2000/svg"
 width="2000.000000pt" height="2000.000000pt" viewBox="0 0 2000.000000 2000.000000"
 preserveAspectRatio="xMidYMid meet">

<g transform="translate(0.000000,2000.000000) scale(0.100000,-0.100000)"
fill="#000000" stroke="none">
<path d="M1127 14018 c-16 -12 -17 -129 -15 -1807 l3 -1794 548 507 547 507 0
1293 c0 1171 -2 1294 -16 1300 -9 3 -248 6 -533 6 -398 0 -521 -3 -534 -12z"/>
<path d="M4700 13467 c-36 -12 -82 -34 -102 -48 -40 -27 -3830 -3528 -3911
-3613 -133 -137 -163 -339 -78 -516 38 -80 134 -174 218 -212 132 -60 328 -47
440 29 46 32 3880 3579 3930 3636 119 137 137 368 40 527 -35 58 -107 128
-162 160 -110 63 -258 77 -375 37z"/>
<path d="M12170 10663 c-292 -31 -531 -141 -705 -324 -213 -224 -305 -508
-292 -899 15 -454 156 -762 432 -944 94 -62 181 -98 320 -134 92 -24 118 -26
315 -26 286 -1 483 27 735 102 l60 18 3 592 2 592 -450 0 -450 0 0 -200 0
-200 215 0 215 0 -2 -242 -3 -243 -80 -12 c-44 -6 -139 -12 -212 -12 -113 -1
-143 2 -208 23 -144 46 -246 137 -314 280 -105 220 -120 570 -34 806 51 139
181 295 298 357 113 59 195 78 340 78 175 -1 326 -32 469 -95 26 -12 51 -18
55 -13 13 14 154 363 150 368 -10 9 -169 64 -244 84 -161 42 -444 62 -615 44z"/>
<path d="M15800 10649 c-213 -44 -386 -168 -462 -329 -49 -102 -62 -167 -62
-290 1 -162 37 -270 129 -390 89 -116 182 -180 437 -305 212 -103 279 -143
340 -203 61 -59 82 -112 76 -191 -18 -250 -376 -290 -863 -96 -60 24 -118 47
-127 50 -17 7 -18 -7 -18 -213 l0 -220 48 -20 c161 -69 319 -101 532 -108 327
-11 550 53 713 206 113 105 173 239 183 405 11 176 -43 346 -145 457 -80 87
-203 167 -468 302 -265 134 -319 172 -354 250 -39 86 -16 191 56 255 62 54 97
65 220 65 135 -1 239 -21 404 -81 67 -24 125 -43 127 -41 1 2 36 85 77 183
l75 180 -57 23 c-101 41 -304 101 -395 117 -127 22 -346 19 -466 -6z"/>
<path d="M9572 10633 c-3 -10 -184 -524 -402 -1143 l-395 -1125 254 -3 c140
-1 255 -1 257 1 3 3 164 526 164 533 0 2 190 4 423 4 l422 0 81 -267 82 -268
256 -3 c141 -1 256 0 256 3 0 4 -181 519 -402 1146 l-401 1139 -294 0 c-270 0
-294 -1 -301 -17z m470 -883 c72 -234 133 -431 135 -437 4 -10 -59 -13 -296
-13 -242 0 -301 3 -301 13 0 7 45 161 100 342 55 180 119 392 141 469 22 78
43 150 46 161 5 15 11 3 25 -45 11 -36 78 -256 150 -490z"/>
<path d="M5990 9500 l0 -1140 235 0 235 0 0 1140 0 1140 -235 0 -235 0 0
-1140z"/>
<path d="M7050 9500 l0 -1140 235 0 235 0 0 405 0 405 104 0 c493 0 762 113
910 381 60 109 79 200 80 374 0 228 -42 359 -157 481 -78 84 -153 132 -268
171 -162 56 -243 63 -716 63 l-423 0 0 -1140z m894 722 c32 -12 72 -32 90 -45
75 -58 117 -201 96 -326 -19 -112 -70 -184 -163 -229 -84 -41 -153 -53 -309
-55 l-133 -2 -3 343 -2 344 182 -4 c156 -3 192 -7 242 -26z"/>
<path d="M13590 9500 l0 -1140 655 0 655 0 0 195 0 195 -415 0 -415 0 0 300 0
300 385 0 385 0 0 195 0 195 -385 0 -385 0 0 255 0 255 415 0 415 0 0 195 0
195 -655 0 -655 0 0 -1140z"/>
<path d="M16930 10445 l0 -195 310 0 310 0 0 -945 0 -945 240 0 240 0 0 945 0
945 310 0 310 0 0 195 0 195 -860 0 -860 0 0 -195z"/>
<path d="M1658 9252 l-547 -507 -1 -1229 0 -1229 23 20 c12 11 259 239 550
507 l527 488 0 1229 c0 676 -1 1229 -2 1228 -2 0 -249 -229 -550 -507z"/>
</g>
</svg>
